<?xml version="1.0" encoding="UTF-8" standalone="no"?>
<svg
   xmlns:dc="http://purl.org/dc/elements/1.1/"
   xmlns:cc="http://creativecommons.org/ns#"
   xmlns:rdf="http://www.w3.org/1999/02/22-rdf-syntax-ns#"
   xmlns:svg="http://www.w3.org/2000/svg"
   xmlns="http://www.w3.org/2000/svg"
   version="1.1"
   id="svg62"
   width="7.1185937"
   height="7.1185937"
   viewBox="0 0 7.1185937 7.1185937">
  <metadata
     id="metadata68">
    <rdf:RDF>
      <cc:Work
         rdf:about="">
        <dc:format>image/svg+xml</dc:format>
        <dc:type
           rdf:resource="http://purl.org/dc/dcmitype/StillImage" />
        <dc:title></dc:title>
      </cc:Work>
    </rdf:RDF>
  </metadata>
  <defs
     id="defs66" />
  <g
     id="g70"
     transform="translate(-16.782698,-16.423372)">
    <path
       id="rect74"
       style="fill:#000000;fill-rule:evenodd;stroke-width:0.906062"
       d="m 17.844194,19.387733 2.136118,2.136118 a 0.5114952,0.5114952 0 0 0 0.723364,0 l 2.136118,-2.136118 a 0.2,0.2 90 0 0 0,-0.282842 l -0.277872,-0.277872 a 0.2,0.2 0 0 0 -0.282842,0 l -1.858052,1.858052 a 0.11372463,0.11372463 0 0 1 -0.16083,0 L 18.403527,18.8284 a 0.2,0.2 180 0 0 -0.282842,0 l -0.276491,0.276491 a 0.2,0.2 90 0 0 0,0.282842 z" />
  </g>
</svg>
